<svg width="380" height="60" viewBox="0 0 380 60" fill="none" xmlns="http://www.w3.org/2000/svg">
<g filter="url(#filter0_d_286_148)">
<rect x="6" y="6" width="368" height="48" rx="22.5" fill="#18DDE9" fill-opacity="0.5" shape-rendering="crispEdges"/>
<rect x="6.5" y="6.5" width="367" height="47" rx="22" stroke="#18DDE9" shape-rendering="crispEdges"/>
</g>
<path d="M129.592 34.2656C129.289 34.2656 128.996 34.1582 128.703 33.8652L125.461 30.75C125.266 30.5547 125.158 30.3496 125.158 30.0664C125.158 29.5098 125.617 29.1191 126.135 29.1191C126.408 29.1191 126.682 29.2363 126.867 29.4414L128.049 30.7012L128.615 31.4629L128.469 30.0273V20.1934C128.469 19.5977 128.967 19.0801 129.592 19.0801C130.227 19.0801 130.725 19.5977 130.725 20.1934V30.0273L130.568 31.4531L131.135 30.7012L132.316 29.4414C132.502 29.2363 132.766 29.1191 133.049 29.1191C133.566 29.1191 134.025 29.5098 134.025 30.0664C134.025 30.3496 133.918 30.5547 133.723 30.75L130.49 33.8652C130.188 34.1582 129.895 34.2656 129.592 34.2656ZM123.938 40.4277C121.711 40.4277 120.49 39.2168 120.49 37V27.6152C120.49 25.3984 121.711 24.1973 123.938 24.1973H126.584V26.7168H124.211C123.43 26.7168 123.01 27.0977 123.01 27.9277V36.6875C123.01 37.5176 123.43 37.8984 124.211 37.8984H134.973C135.754 37.8984 136.174 37.5176 136.174 36.6875V27.9277C136.174 27.0977 135.754 26.7168 134.973 26.7168H132.609V24.1973H135.246C137.482 24.1973 138.693 25.4082 138.693 27.6152V37C138.693 39.207 137.482 40.4277 135.246 40.4277H123.938ZM164.144 35.34H178.184V37.62H164.144V35.34ZM162.184 21.2H180.204V23.44H162.184V21.2ZM162.804 24.76H165.144V38.8H162.804V24.76ZM177.264 24.76H179.584V38.76H177.264V24.76ZM169.904 21.86H172.324V25.96H169.904V21.86ZM170.084 25.96H172.144V33.42H170.084V25.96ZM168.364 30.52V32.22H173.884V30.52H168.364ZM168.364 27.02V28.7H173.884V27.02H168.364ZM166.404 25.06H175.944V34.18H166.404V25.06ZM190.384 20.02L192.644 20.44C192.097 21.4267 191.457 22.3933 190.724 23.34C189.99 24.2733 189.117 25.1467 188.104 25.96C187.904 25.7333 187.637 25.4867 187.304 25.22C186.97 24.9533 186.664 24.7533 186.384 24.62C187.01 24.1667 187.577 23.68 188.084 23.16C188.604 22.64 189.05 22.1133 189.424 21.58C189.81 21.0333 190.13 20.5133 190.384 20.02ZM191.024 21.22H195.464V22.96H189.624L191.024 21.22ZM189.984 25.66V27.18H197.584V25.66H189.984ZM187.824 24.04H199.884V28.8H187.824V24.04ZM192.604 24.76H194.744V27.94H192.604V24.76ZM192.964 27.36L194.744 28.08C194.197 28.6133 193.55 29.1333 192.804 29.64C192.07 30.1333 191.29 30.5867 190.464 31C189.65 31.4 188.857 31.7467 188.084 32.04C187.99 31.8933 187.864 31.7267 187.704 31.54C187.544 31.34 187.384 31.14 187.224 30.94C187.064 30.74 186.917 30.58 186.784 30.46C187.544 30.2467 188.31 29.98 189.084 29.66C189.857 29.34 190.584 28.9867 191.264 28.6C191.944 28.2133 192.51 27.8 192.964 27.36ZM190.504 30.06L192.104 29.08C192.89 29.6267 193.53 30.24 194.024 30.92C194.517 31.5867 194.877 32.2733 195.104 32.98C195.344 33.6867 195.464 34.3733 195.464 35.04C195.477 35.6933 195.397 36.28 195.224 36.8C195.05 37.32 194.797 37.72 194.464 38C194.144 38.2933 193.817 38.4933 193.484 38.6C193.164 38.72 192.784 38.7933 192.344 38.82C192.13 38.82 191.897 38.8133 191.644 38.8C191.404 38.7867 191.164 38.7733 190.924 38.76C190.91 38.48 190.857 38.1467 190.764 37.76C190.684 37.3733 190.55 37.0333 190.364 36.74C190.657 36.78 190.93 36.8067 191.184 36.82C191.45 36.8333 191.684 36.84 191.884 36.84C192.084 36.84 192.264 36.8133 192.424 36.76C192.597 36.7067 192.75 36.6 192.884 36.44C193.084 36.24 193.224 35.9067 193.304 35.44C193.384 34.96 193.35 34.4067 193.204 33.78C193.057 33.1533 192.77 32.5133 192.344 31.86C191.917 31.2067 191.304 30.6067 190.504 30.06ZM192.584 30.4L193.884 31.28C193.417 31.6933 192.85 32.1267 192.184 32.58C191.517 33.02 190.81 33.4333 190.064 33.82C189.33 34.2067 188.637 34.5333 187.984 34.8C187.864 34.5733 187.704 34.3133 187.504 34.02C187.304 33.7267 187.104 33.4867 186.904 33.3C187.544 33.1 188.224 32.8467 188.944 32.54C189.664 32.2333 190.344 31.8933 190.984 31.52C191.637 31.1333 192.17 30.76 192.584 30.4ZM193.544 32.44L195.044 33.48C194.497 34.0533 193.81 34.6333 192.984 35.22C192.17 35.7933 191.31 36.3333 190.404 36.84C189.51 37.3333 188.65 37.7533 187.824 38.1C187.677 37.8333 187.49 37.5333 187.264 37.2C187.037 36.88 186.81 36.6133 186.584 36.4C187.197 36.2133 187.83 35.98 188.484 35.7C189.137 35.4067 189.784 35.08 190.424 34.72C191.064 34.36 191.65 33.9867 192.184 33.6C192.73 33.2 193.184 32.8133 193.544 32.44ZM198.964 29.2L200.584 30.62C200.104 31.06 199.584 31.4933 199.024 31.92C198.464 32.3333 197.95 32.68 197.484 32.96L196.144 31.66C196.437 31.46 196.75 31.22 197.084 30.94C197.43 30.66 197.77 30.3667 198.104 30.06C198.45 29.74 198.737 29.4533 198.964 29.2ZM196.144 27.76C196.37 28.96 196.684 30.1067 197.084 31.2C197.497 32.28 198.01 33.2467 198.624 34.1C199.25 34.9533 199.99 35.6333 200.844 36.14C200.67 36.2733 200.484 36.4533 200.284 36.68C200.097 36.8933 199.91 37.1133 199.724 37.34C199.55 37.58 199.41 37.8 199.304 38C198.37 37.36 197.57 36.5467 196.904 35.56C196.25 34.5733 195.704 33.4467 195.264 32.18C194.837 30.9 194.49 29.5333 194.224 28.08L196.144 27.76ZM194.744 21.22H195.264L195.684 21.1L197.084 22.12C196.724 22.72 196.304 23.34 195.824 23.98C195.344 24.62 194.877 25.1667 194.424 25.62C194.264 25.3933 194.05 25.14 193.784 24.86C193.517 24.58 193.29 24.3533 193.104 24.18C193.41 23.8467 193.724 23.4333 194.044 22.94C194.364 22.4333 194.597 21.9933 194.744 21.62V21.22ZM185.384 20.04L187.604 20.7C187.23 21.86 186.777 23.0333 186.244 24.22C185.724 25.4067 185.15 26.5333 184.524 27.6C183.897 28.6533 183.244 29.58 182.564 30.38C182.51 30.1933 182.417 29.9333 182.284 29.6C182.15 29.2667 182.004 28.9333 181.844 28.6C181.684 28.2667 181.544 27.9933 181.424 27.78C181.957 27.1533 182.47 26.4267 182.964 25.6C183.47 24.7733 183.93 23.8867 184.344 22.94C184.757 21.98 185.104 21.0133 185.384 20.04ZM183.784 25.54L186.004 23.32L186.064 23.36V38.78H183.784V25.54ZM210.904 20.96C210.837 21.32 210.73 21.7867 210.584 22.36C210.437 22.9333 210.224 23.58 209.944 24.3C209.73 24.7933 209.484 25.3067 209.204 25.84C208.937 26.36 208.664 26.8267 208.384 27.24C208.557 27.16 208.777 27.0933 209.044 27.04C209.31 26.9733 209.584 26.9267 209.864 26.9C210.157 26.86 210.417 26.84 210.644 26.84C211.484 26.84 212.177 27.08 212.724 27.56C213.284 28.04 213.564 28.7533 213.564 29.7C213.564 29.9667 213.564 30.2933 213.564 30.68C213.577 31.0667 213.59 31.4733 213.604 31.9C213.617 32.3133 213.63 32.72 213.644 33.12C213.657 33.52 213.664 33.88 213.664 34.2H211.264C211.29 33.9733 211.304 33.7067 211.304 33.4C211.317 33.08 211.324 32.7467 211.324 32.4C211.337 32.0533 211.344 31.72 211.344 31.4C211.357 31.0667 211.364 30.7667 211.364 30.5C211.364 29.86 211.19 29.42 210.844 29.18C210.51 28.9267 210.137 28.8 209.724 28.8C209.164 28.8 208.597 28.94 208.024 29.22C207.464 29.4867 206.99 29.8067 206.604 30.18C206.31 30.4733 206.01 30.8 205.704 31.16C205.41 31.52 205.09 31.9267 204.744 32.38L202.604 30.78C203.47 29.98 204.217 29.2067 204.844 28.46C205.484 27.7133 206.024 26.9733 206.464 26.24C206.904 25.5067 207.264 24.7733 207.544 24.04C207.744 23.5067 207.904 22.9533 208.024 22.38C208.157 21.7933 208.237 21.2467 208.264 20.74L210.904 20.96ZM203.384 22.8C203.89 22.88 204.477 22.94 205.144 22.98C205.81 23.02 206.397 23.04 206.904 23.04C207.784 23.04 208.744 23.02 209.784 22.98C210.837 22.94 211.904 22.8733 212.984 22.78C214.064 22.6733 215.09 22.54 216.064 22.38L216.044 24.7C215.337 24.7933 214.57 24.88 213.744 24.96C212.93 25.0267 212.097 25.0867 211.244 25.14C210.404 25.18 209.597 25.2133 208.824 25.24C208.05 25.2533 207.364 25.26 206.764 25.26C206.497 25.26 206.164 25.26 205.764 25.26C205.377 25.2467 204.977 25.2333 204.564 25.22C204.15 25.1933 203.757 25.1667 203.384 25.14V22.8ZM219.224 28.48C219.01 28.5467 218.757 28.6333 218.464 28.74C218.184 28.8333 217.897 28.9333 217.604 29.04C217.324 29.1333 217.07 29.2267 216.844 29.32C216.204 29.5733 215.444 29.88 214.564 30.24C213.697 30.6 212.79 31.02 211.844 31.5C211.244 31.82 210.737 32.1333 210.324 32.44C209.91 32.7467 209.597 33.06 209.384 33.38C209.17 33.6867 209.064 34.0267 209.064 34.4C209.064 34.68 209.124 34.9133 209.244 35.1C209.364 35.2733 209.544 35.4133 209.784 35.52C210.024 35.6267 210.324 35.7 210.684 35.74C211.044 35.78 211.47 35.8 211.964 35.8C212.817 35.8 213.757 35.7533 214.784 35.66C215.81 35.5533 216.764 35.4133 217.644 35.24L217.564 37.82C217.137 37.8733 216.597 37.9267 215.944 37.98C215.29 38.0467 214.61 38.0933 213.904 38.12C213.21 38.1467 212.544 38.16 211.904 38.16C210.864 38.16 209.93 38.06 209.104 37.86C208.277 37.66 207.624 37.32 207.144 36.84C206.677 36.3467 206.444 35.6733 206.444 34.82C206.444 34.1267 206.597 33.5 206.904 32.94C207.224 32.38 207.644 31.8733 208.164 31.42C208.684 30.9667 209.25 30.56 209.864 30.2C210.49 29.8267 211.104 29.4867 211.704 29.18C212.317 28.86 212.87 28.5867 213.364 28.36C213.857 28.1333 214.317 27.9333 214.744 27.76C215.184 27.5733 215.604 27.3867 216.004 27.2C216.39 27.0267 216.764 26.86 217.124 26.7C217.484 26.5267 217.85 26.3467 218.224 26.16L219.224 28.48ZM232.844 27.08H235.244V38.8H232.844V27.08ZM227.564 29.6H240.424V31.76H227.564V29.6ZM235.704 30.56C236.077 31.28 236.544 31.9933 237.104 32.7C237.677 33.4067 238.297 34.06 238.964 34.66C239.644 35.26 240.33 35.76 241.024 36.16C240.85 36.2933 240.65 36.4733 240.424 36.7C240.21 36.9267 240.004 37.16 239.804 37.4C239.617 37.64 239.457 37.86 239.324 38.06C238.63 37.5667 237.944 36.9533 237.264 36.22C236.597 35.4867 235.97 34.6933 235.384 33.84C234.81 32.9733 234.317 32.0933 233.904 31.2L235.704 30.56ZM232.504 30.36L234.384 31.02C233.957 31.9533 233.437 32.8667 232.824 33.76C232.21 34.64 231.537 35.4467 230.804 36.18C230.07 36.9 229.304 37.5133 228.504 38.02C228.384 37.82 228.224 37.6 228.024 37.36C227.837 37.12 227.637 36.8933 227.424 36.68C227.224 36.4533 227.03 36.26 226.844 36.1C227.617 35.7 228.364 35.2 229.084 34.6C229.804 33.9867 230.457 33.32 231.044 32.6C231.644 31.8667 232.13 31.12 232.504 30.36ZM231.164 23V25.68H237.044V23H231.164ZM228.904 20.88H239.464V27.78H228.904V20.88ZM226.284 20.06L228.504 20.78C228.064 21.9133 227.537 23.0467 226.924 24.18C226.324 25.3 225.67 26.3667 224.964 27.38C224.27 28.38 223.557 29.26 222.824 30.02C222.757 29.82 222.65 29.5667 222.504 29.26C222.357 28.9533 222.197 28.64 222.024 28.32C221.85 28 221.69 27.7467 221.544 27.56C222.17 26.9467 222.777 26.24 223.364 25.44C223.95 24.64 224.49 23.78 224.984 22.86C225.49 21.94 225.924 21.0067 226.284 20.06ZM224.344 25.58L226.624 23.3V23.32V38.74H224.344V25.58ZM248.164 31.5H260.424V33.74H248.164V31.5ZM249.704 26.46H257.344V28.62H249.704V26.46ZM253.264 29.84H255.684V36.24C255.684 36.84 255.61 37.3067 255.464 37.64C255.33 37.9867 255.05 38.2467 254.624 38.42C254.197 38.6067 253.684 38.7133 253.084 38.74C252.497 38.78 251.797 38.8 250.984 38.8C250.944 38.44 250.857 38.0467 250.724 37.62C250.604 37.1933 250.47 36.8133 250.324 36.48C250.657 36.4933 250.997 36.5067 251.344 36.52C251.69 36.5333 251.997 36.54 252.264 36.54C252.544 36.5267 252.73 36.52 252.824 36.52C252.997 36.5067 253.11 36.48 253.164 36.44C253.23 36.4 253.264 36.3133 253.264 36.18V29.84ZM256.764 26.46H257.364L257.844 26.34L259.344 27.52C258.957 27.9733 258.517 28.4467 258.024 28.94C257.53 29.42 257.017 29.8867 256.484 30.34C255.964 30.78 255.45 31.1667 254.944 31.5C254.797 31.2867 254.59 31.04 254.324 30.76C254.07 30.48 253.85 30.2667 253.664 30.12C254.05 29.84 254.444 29.5133 254.844 29.14C255.244 28.7533 255.61 28.36 255.944 27.96C256.29 27.56 256.564 27.2133 256.764 26.92V26.46ZM242.284 22.62H260.124V24.92H242.284V22.62ZM248.544 20L251.104 20.6C250.61 22.2267 249.99 23.8267 249.244 25.4C248.497 26.96 247.59 28.42 246.524 29.78C245.47 31.14 244.224 32.3133 242.784 33.3C242.704 33.0733 242.59 32.82 242.444 32.54C242.31 32.2467 242.164 31.9533 242.004 31.66C241.857 31.3667 241.717 31.1267 241.584 30.94C242.49 30.34 243.317 29.6267 244.064 28.8C244.81 27.96 245.47 27.06 246.044 26.1C246.617 25.1267 247.11 24.12 247.524 23.08C247.95 22.04 248.29 21.0133 248.544 20ZM244.564 28.34H246.984V38.76H244.564V28.34Z" fill="white"/>
<defs>
<filter id="filter0_d_286_148" x="0" y="0" width="380" height="60" filterUnits="userSpaceOnUse" color-interpolation-filters="sRGB">
<feFlood flood-opacity="0" result="BackgroundImageFix"/>
<feColorMatrix in="SourceAlpha" type="matrix" values="0 0 0 0 0 0 0 0 0 0 0 0 0 0 0 0 0 0 127 0" result="hardAlpha"/>
<feMorphology radius="2" operator="dilate" in="SourceAlpha" result="effect1_dropShadow_286_148"/>
<feOffset/>
<feGaussianBlur stdDeviation="2"/>
<feComposite in2="hardAlpha" operator="out"/>
<feColorMatrix type="matrix" values="0 0 0 0 1 0 0 0 0 1 0 0 0 0 1 0 0 0 0.5 0"/>
<feBlend mode="normal" in2="BackgroundImageFix" result="effect1_dropShadow_286_148"/>
<feBlend mode="normal" in="SourceGraphic" in2="effect1_dropShadow_286_148" result="shape"/>
</filter>
</defs>
</svg>
